<svg width="188" height="56" viewBox="0 0 188 56" fill="none" xmlns="http://www.w3.org/2000/svg">
<g clip-path="url(#clip0_376_743)">
<path d="M64.1404 23.1961C65.2696 24.1861 65.2696 25.7901 64.1404 26.7791L52.3185 37.1411C52.1412 37.2979 51.9292 37.4225 51.6951 37.5076C51.461 37.5927 51.2096 37.6365 50.9555 37.6365C50.7014 37.6365 50.4499 37.5927 50.2159 37.5076C49.9818 37.4225 49.7698 37.2979 49.5925 37.1411L35.8012 25.0521C35.2592 24.5771 34.954 23.9321 34.954 23.2601V1.69314C34.954 0.188141 37.0302 -0.565859 38.244 0.499141L64.1393 23.1971L64.1404 23.1961ZM11.9542 36.5041C12.2202 36.7392 12.5381 36.9261 12.8891 37.0537C13.2402 37.1812 13.6174 37.247 13.9984 37.247C14.3794 37.247 14.7566 37.1812 15.1077 37.0537C15.4588 36.9261 15.7767 36.7392 16.0426 36.5041L29.1446 25.0191C29.6865 24.5441 29.9906 23.8991 29.9906 23.2271V1.71314C29.9906 0.208141 27.9145 -0.545859 26.7006 0.518141L0.847115 23.1831C-0.282046 24.1731 -0.282046 25.7771 0.847115 26.7671L11.9542 36.5041Z" fill="#3C52D9"/>
<path d="M29.8335 31.1439L19.3554 40.1729C17.9509 41.3832 17.9509 43.3453 19.3554 44.5556L29.9575 53.6914C31.3619 54.9016 33.639 54.9016 35.0435 53.6914L45.5216 44.6624C46.9261 43.4521 46.9261 41.4899 45.5216 40.2797L34.9196 31.1439C33.5151 29.9337 31.238 29.9337 29.8335 31.1439Z" fill="#2EF2FF"/>
<path d="M80.6636 12.7273L84.4818 19.5H84.6636L88.5272 12.7273H95.5727L88.6181 24.3636L95.8454 36H88.6181L84.6636 29.0909H84.4818L80.5272 36H73.3454L80.4818 24.3636L73.5727 12.7273H80.6636ZM97.3426 12.7273H104.388L108.933 22.1818H109.115L113.661 12.7273H120.706L112.161 28.6818V36H105.888V28.6818L97.3426 12.7273ZM122.766 36V12.7273H132.857C134.63 12.7273 136.118 12.9659 137.323 13.4432C138.535 13.9205 139.448 14.5947 140.061 15.4659C140.683 16.3371 140.993 17.3636 140.993 18.5455C140.993 19.4015 140.804 20.1818 140.425 20.8864C140.054 21.5909 139.531 22.1818 138.857 22.6591C138.183 23.1288 137.395 23.4545 136.493 23.6364V23.8636C137.493 23.9015 138.402 24.1553 139.22 24.625C140.039 25.0871 140.69 25.7273 141.175 26.5455C141.66 27.3561 141.902 28.3106 141.902 29.4091C141.902 30.6818 141.569 31.8144 140.902 32.8068C140.243 33.7992 139.304 34.5795 138.084 35.1477C136.864 35.7159 135.41 36 133.72 36H122.766ZM129.084 30.9545H132.039C133.099 30.9545 133.895 30.7576 134.425 30.3636C134.955 29.9621 135.22 29.3712 135.22 28.5909C135.22 28.0455 135.095 27.5833 134.845 27.2045C134.595 26.8258 134.239 26.5379 133.777 26.3409C133.323 26.1439 132.773 26.0455 132.13 26.0455H129.084V30.9545ZM129.084 22.1364H131.675C132.228 22.1364 132.717 22.0492 133.141 21.875C133.565 21.7008 133.895 21.4508 134.13 21.125C134.372 20.7917 134.493 20.3864 134.493 19.9091C134.493 19.1894 134.236 18.6402 133.72 18.2614C133.205 17.875 132.554 17.6818 131.766 17.6818H129.084V22.1364ZM144.141 36V12.7273H160.914V17.8182H150.459V21.8182H160.05V26.9091H150.459V30.9091H160.868V36H144.141ZM164.047 36V12.7273H174.093C175.82 12.7273 177.331 13.0417 178.627 13.6705C179.922 14.2992 180.93 15.2045 181.649 16.3864C182.369 17.5682 182.729 18.9848 182.729 20.6364C182.729 22.303 182.358 23.7083 181.615 24.8523C180.88 25.9962 179.846 26.8598 178.513 27.4432C177.187 28.0265 175.638 28.3182 173.865 28.3182H167.865V23.4091H172.593C173.335 23.4091 173.968 23.3182 174.49 23.1364C175.021 22.947 175.426 22.6477 175.706 22.2386C175.994 21.8295 176.138 21.2955 176.138 20.6364C176.138 19.9697 175.994 19.428 175.706 19.0114C175.426 18.5871 175.021 18.2765 174.49 18.0795C173.968 17.875 173.335 17.7727 172.593 17.7727H170.365V36H164.047ZM177.683 25.3182L183.502 36H176.638L170.956 25.3182H177.683Z" fill="#EAEDFF"/>
</g>
<defs>
<clipPath id="clip0_376_743">
<rect width="188" height="56" fill="white"/>
</clipPath>
</defs>
</svg>
